<?xml version="1.0" standalone="no"?><!DOCTYPE svg PUBLIC "-//W3C//DTD SVG 1.1//EN" "http://www.w3.org/Graphics/SVG/1.1/DTD/svg11.dtd"><svg t="1505442338921" class="icon" style="" viewBox="0 0 1024 1024" version="1.1" xmlns="http://www.w3.org/2000/svg" p-id="4513" xmlns:xlink="http://www.w3.org/1999/xlink" width="32" height="32"><defs><style type="text/css"></style></defs><path d="M798.72 250.88l-107.52 0c0-87.04-46.08-179.2-179.2-179.2-133.12 0-179.2 92.16-179.2 179.2L225.28 250.88C184.32 250.88 153.6 281.6 153.6 317.44l0 532.48C153.6 890.88 184.32 921.6 225.28 921.6l578.56 0c40.96 0 71.68-30.72 71.68-71.68L875.52 317.44C870.4 281.6 839.68 250.88 798.72 250.88zM512 112.64c92.16 0 133.12 66.56 133.12 133.12L378.88 245.76C378.88 184.32 419.84 112.64 512 112.64zM824.32 849.92c0 15.36-10.24 25.6-25.6 25.6L225.28 875.52c-15.36 0-25.6-10.24-25.6-25.6L199.68 317.44c0-15.36 10.24-25.6 25.6-25.6l578.56 0c15.36 0 25.6 10.24 25.6 25.6C824.32 317.44 824.32 849.92 824.32 849.92z" p-id="4514" fill="#1c1c1c"></path></svg>